<mxfile host="app.diagrams.net" modified="2023-12-15T12:15:12.789Z" agent="Mozilla/5.0 (Windows NT 10.0; Win64; x64) AppleWebKit/537.36 (KHTML, like Gecko) Chrome/120.0.0.0 Safari/537.36" version="22.1.9" etag="NM5Zc1a-LacwutdCJn86" type="github">
  <diagram name="Page-1" id="mcdEZPVu1obGgJx84mr0">
    <mxGraphModel>
      <root>
        <mxCell id="0" />
        <mxCell id="1" parent="0" />
      </root>
    </mxGraphModel>
  </diagram>
</mxfile>
